<svg width="154" height="155" viewBox="0 0 154 155" fill="none" xmlns="http://www.w3.org/2000/svg">
<rect x="0.422852" y="0.644531" width="153.577" height="153.577" rx="41.7174" fill="#E4F9FD"/>
<path d="M67.5068 52.9447C67.5068 52.4532 67.8788 52.0547 68.3371 52.0547H86.0846C86.5429 52.0547 86.9148 52.4532 86.9148 52.9447V57.0362H67.5068V52.9447Z" fill="white"/>
<circle cx="118.712" cy="56.7121" r="20.7121" fill="#10BBD6"/>
<path d="M108 49H41V109.3H108V49Z" fill="white"/>
<path d="M106.763 48.181H100.582V44.3179C100.582 43.0384 99.5441 42 98.2646 42C96.9852 42 95.9467 43.0384 95.9467 44.3179V48.181H85.13V44.3179C85.13 43.0384 84.0916 42 82.8121 42C81.5327 42 80.4943 43.0384 80.4943 44.3179V48.181H69.6776V44.3179C69.6776 43.0384 68.6391 42 67.3597 42C66.0802 42 65.0418 43.0384 65.0418 44.3179V48.181H54.2251V44.3179C54.2251 43.0384 53.1867 42 51.9072 42C50.6278 42 49.5893 43.0384 49.5893 44.3179V48.181H43.4084C40.426 48.181 38 50.607 38 53.5893V110.763C38 113.746 40.426 116.172 43.4084 116.172H106.763C109.746 116.172 112.172 113.746 112.172 110.763V53.5893C112.172 50.607 109.746 48.181 106.763 48.181ZM43.4084 52.8167H49.5893V56.6798C49.5893 57.9593 50.6278 58.9977 51.9072 58.9977C53.1867 58.9977 54.2251 57.9593 54.2251 56.6798V52.8167H65.0418V56.6798C65.0418 57.9593 66.0802 58.9977 67.3597 58.9977C68.6391 58.9977 69.6776 57.9593 69.6776 56.6798V52.8167H80.4943V56.6798C80.4943 57.9593 81.5327 58.9977 82.8121 58.9977C84.0916 58.9977 85.13 57.9593 85.13 56.6798V52.8167H95.9467V56.6798C95.9467 57.9593 96.9852 58.9977 98.2646 58.9977C99.5441 58.9977 100.582 57.9593 100.582 56.6798V52.8167H106.763C107.184 52.8167 107.536 53.169 107.536 53.5893V65.1787H42.6357V53.5893C42.6357 53.169 42.9881 52.8167 43.4084 52.8167ZM106.763 111.536H43.4084C42.9881 111.536 42.6357 111.184 42.6357 110.763V70.5514H107.536V110.763C107.536 111.184 107.184 111.536 106.763 111.536Z" fill="#0B2537"/>
</svg>
