<svg xmlns="http://www.w3.org/2000/svg" xmlns:xlink="http://www.w3.org/1999/xlink" width="155" height="40" viewBox="0 0 155 40">
  <defs>
    <polygon id="upleads-header-logo-a" points=".107 .088 26.758 .088 26.758 31.8 .107 31.8"/>
  </defs>
  <g fill="none" fill-rule="evenodd">
    <g transform="translate(32.456 8.182)">
      <mask id="upleads-header-logo-b" fill="#fff">
        <use xlink:href="#upleads-header-logo-a"/>
      </mask>
      <path fill="#5E707D" d="M9.86873777,6.97909091 C8.52863992,8.28121212 7.85343444,9.93545455 7.85343444,11.9045455 C7.85343444,13.8736364 8.52863992,15.5278788 9.86873777,16.83 C11.1678865,18.1236364 12.8237476,18.7960606 14.7541194,18.7960606 C16.6823679,18.7960606 18.2493542,18.1236364 19.5421331,16.83 C20.8033659,15.5278788 21.4267025,13.8736364 21.4267025,11.9045455 C21.4267025,9.93545455 20.8033659,8.28121212 19.5421331,6.97909091 C18.2493542,5.68515152 16.6823679,5.0130303 14.7541194,5.0130303 C12.8237476,5.0130303 11.1678865,5.68515152 9.86873777,6.97909091 Z M8.25928571,19.9175758 L8.25928571,31.8181818 L2.88342466,31.8181818 L2.88342466,7.43121212 C2.88342466,5.50484848 2.43783757,4.78909091 1.22392368,4.78909091 C0.911800391,4.78909091 0.50776908,4.83545455 0.106771037,4.87787879 L0.106771037,0.539090909 C0.687945205,0.316060606 1.5794227,0.178787879 2.74237769,0.178787879 C4.0469863,0.178787879 5.07435421,0.404848485 5.88241683,0.894242424 C6.87277886,1.56666667 7.49732877,2.46272727 7.71936399,3.62454545 C9.28695695,1.25454545 11.8843444,0.0875757576 15.470274,0.0875757576 C18.648229,0.0875757576 21.3329746,1.20666667 23.5351272,3.48787879 C25.6851076,5.77636364 26.7579746,8.55 26.7579746,11.9045455 C26.7579746,15.2590909 25.6851076,18.0348485 23.5351272,20.2733333 C21.3329746,22.5542424 18.648229,23.6754545 15.470274,23.6754545 C11.8409687,23.6754545 9.10526419,22.0618182 8.25928571,19.9175758 Z" mask="url(#upleads-header-logo-b)"/>
    </g>
    <path fill="#5E707D" d="M25.3092857,0.172727273 L25.3092857,18.8327273 C25.3092857,24.2075758 22.6233268,26.8027273 18.2748337,26.8027273 C13.8453523,26.8027273 11.2024658,24.2075758 11.2024658,18.8327273 L11.2024658,10.0839394 L11.1976125,10.0869697 L11.1976125,0.172727273 L0,11.3575758 L9.00546967,11.3575758 L5.59789628,13.2172727 L5.59789628,19.4163636 C5.59789628,23.4024242 6.76691781,26.4860606 9.14136008,28.6351515 C11.5188356,30.7842424 14.5566536,31.8572727 18.2748337,31.8572727 C21.9936204,31.8572727 24.9983757,30.7842424 27.3703914,28.6351515 C29.7445303,26.4860606 30.9074853,23.4024242 30.9074853,19.4163636 L30.9074853,0.172727273 L25.3092857,0.172727273"/>
    <polyline fill="#9FB3BD" points="61.986 31.366 61.986 .173 65.476 .173 65.476 28.143 78.337 28.143 78.337 31.366 61.986 31.366"/>
    <path fill="#9FB3BD" d="M97.5034932 17.8942424C97.5034932 16.0593939 96.8307143 14.4939394 95.4869765 13.1948485 94.1432387 11.8951515 92.5277202 11.2251515 90.6486106 11.2251515 88.5887182 11.2251515 86.7954501 11.8951515 85.3170352 13.1948485 83.8413503 14.4939394 83.0387476 16.0593939 82.9013405 17.8942424L97.5034932 17.8942424zM79.3660665 20.1775758C79.3660665 16.5518182 80.4401468 13.6409091 82.5434149 11.4487879 84.6442564 9.25666667 87.3772309 8.13969697 90.6486106 8.13969697 93.7367808 8.13969697 96.2031311 9.21090909 98.1286497 11.4054545 100.056292 13.5545455 101.042104 16.1936364 101.042104 19.3736364 101.042104 19.8654545 101.042104 20.3551515 100.999031 20.8048485L82.6777886 20.8048485C82.8585714 25.7706061 86.0334932 28.9475758 90.7374853 28.9475758 93.8311155 28.9475758 95.664726 27.9627273 97.6842759 25.8160606L99.8785421 27.9627273C97.5034932 30.6066667 94.4532387 31.9460606 90.7374853 31.9460606 87.3772309 31.9460606 84.600274 30.8730303 82.5000391 28.77 80.3916145 26.6660606 79.3660665 23.8493939 79.3660665 20.3551515L79.3660665 20.1775758zM120.299413 26.4418182C121.911898 24.7393939 122.716928 22.6415152 122.716928 20.0887879 122.716928 17.5360606 121.911898 15.4354545 120.299413 13.7781818 118.729393 12.0760606 116.72046 11.2263636 114.297789 11.2263636 111.971575 11.2263636 110.04363 12.0760606 108.476644 13.7781818 106.955157 15.4354545 106.193503 17.5360606 106.193503 20.0887879 106.193503 22.6415152 106.955157 24.7393939 108.476644 26.4418182 110.04363 28.0987879 111.971575 28.9463636 114.297789 28.9463636 116.72046 28.9463636 118.729393 28.0987879 120.299413 26.4418182zM122.31593 12.1672727L122.31593 8.81030303 125.630078 8.81030303 125.630078 26.3072727C125.630078 28.2793939 126.077182 29.1263636 127.332045 29.1263636 127.689971 29.1263636 128.090969 29.0836364 128.495 29.0375758L128.495 31.5445455C127.956595 31.7684848 127.240137 31.9027273 126.392035 31.9027273 125.406223 31.9027273 124.596341 31.6766667 124.015166 31.2760606 123.164335 30.6060606 122.631086 29.53 122.493679 28.0533333 120.792319 30.6948485 118.058738 32.0348485 114.297789 32.0348485 111.11771 32.0348485 108.387769 30.9154545 106.193503 28.6345455 103.99681 26.3530303 102.878748 23.4912121 102.878748 20.0887879 102.878748 16.6860606 103.99681 13.8669697 106.193503 11.5866667 108.387769 9.30272727 111.11771 8.14030303 114.297789 8.14030303 118.376321 8.14030303 121.015568 9.88636364 122.31593 12.1672727zM146.634247 26.4427273C148.246732 24.74 149.052065 22.6415152 149.052065 20.0887879 149.052065 17.5360606 148.246732 15.4354545 146.634247 13.7781818 145.0618 12.0754545 143.05226 11.2251515 140.626859 11.2251515 138.300342 11.2251515 136.372701 12.0754545 134.808141 13.7781818 133.284227 15.4354545 132.52227 17.5360606 132.52227 20.0887879 132.52227 22.6415152 133.284227 24.74 134.808141 26.4427273 136.372701 28.0993939 138.300342 28.9475758 140.626859 28.9475758 143.05226 28.9475758 145.0618 28.0993939 146.634247 26.4427273zM148.650763 12.1666667L148.650763.172727273 151.962485.172727273 151.962485 26.3084848C151.962485 28.28 152.407466 29.1275758 153.662329 29.1275758 154.020558 29.1275758 154.424286 29.0836364 154.825284 29.0387879L154.825284 31.5451515C154.289609 31.7684848 153.570421 31.9033333 152.722622 31.9033333 151.739237 31.9033333 150.929354 31.6778788 150.347573 31.2766667 149.499168 30.6066667 148.96592 29.5306061 148.830939 28.0539394 147.129579 30.6954545 144.394178 32.0351515 140.626859 32.0351515 137.446781 32.0351515 134.719266 30.9160606 132.52227 28.6351515 130.327397 26.3539394 129.207211 23.4912121 129.207211 20.0887879 129.207211 16.6860606 130.327397 13.8669697 132.52227 11.5860606 134.719266 9.30212121 137.446781 8.13969697 140.626859 8.13969697 144.708728 8.13969697 147.352828 9.88575758 148.650763 12.1666667z"/>
  </g>
</svg>
